<svg width="168" height="46" viewBox="0 0 168 46" fill="none" xmlns="http://www.w3.org/2000/svg">
<g clip-path="url(#clip0_10_2398)">
<path d="M61.981 19.5393C60.27 19.5393 58.8578 19.0205 57.7405 17.9828C56.6232 16.9451 56.0627 15.6732 56.0627 14.1708C56.0627 12.6683 56.6232 11.3964 57.7405 10.3588C58.8578 9.32108 60.2737 8.80225 61.981 8.80225C63.0245 8.80225 63.9795 9.03284 64.8534 9.49403C65.7236 9.95522 66.3947 10.5749 66.8704 11.3568L65.8711 11.8901C65.5171 11.2559 64.9899 10.7515 64.2893 10.3768C63.5887 10.0021 62.8217 9.8147 61.9847 9.8147C60.5761 9.8147 59.4256 10.2363 58.5333 11.0758C57.6409 11.9153 57.1948 12.9493 57.1948 14.178C57.1948 15.4066 57.6409 16.4371 58.5333 17.2802C59.4256 18.1197 60.5761 18.5413 61.9847 18.5413C62.8217 18.5413 63.5923 18.3539 64.2893 17.9792C64.9862 17.6045 65.5135 17.1 65.8711 16.4659L66.8704 16.9847C66.4095 17.7666 65.7384 18.3899 64.8608 18.8547C63.9832 19.3195 63.0245 19.5537 61.981 19.5537V19.5393Z" fill="white"/>
<path d="M78.3344 19.3627L77.2872 16.8117H71.9294L70.8822 19.3627H69.6875L74.0275 8.9751H75.189L79.5254 19.3627H78.3307H78.3344ZM72.3313 15.8317H76.8852L74.6064 10.2794L72.3276 15.8317H72.3313Z" fill="white"/>
<path d="M93.5595 8.9751V19.3627H92.4312V10.5496L88.4783 16.6352H88.3161L84.3632 10.5496V19.3627H83.2349V8.9751H84.6213L88.3972 14.7904L92.173 8.9751H93.5595Z" fill="white"/>
<path d="M104.658 13.9761C105.208 14.1923 105.643 14.5238 105.971 14.9633C106.299 15.4029 106.461 15.9073 106.461 16.4694C106.461 17.2693 106.155 17.9539 105.543 18.5159C104.931 19.0816 104.19 19.3627 103.316 19.3627H98.3972V8.9751H102.944C103.781 8.9751 104.496 9.24893 105.09 9.80019C105.683 10.3515 105.978 11.0036 105.978 11.7675C105.978 12.7367 105.536 13.4753 104.655 13.9797L104.658 13.9761ZM102.947 9.95512H99.5292V13.5762H102.947C103.475 13.5762 103.925 13.3996 104.293 13.0501C104.666 12.7006 104.85 12.2719 104.85 11.7675C104.85 11.263 104.666 10.8487 104.293 10.492C103.921 10.1353 103.475 9.95873 102.947 9.95873V9.95512ZM103.32 18.3826C103.88 18.3826 104.356 18.1989 104.747 17.8278C105.138 17.4567 105.337 17.0027 105.337 16.4694C105.337 15.9362 105.141 15.4966 104.747 15.1183C104.352 14.7436 103.877 14.5562 103.32 14.5562H99.5292V18.3826H103.32Z" fill="white"/>
<path d="M117.59 19.3627L114.957 15.2084H111.786V19.3627H110.658V8.9751H115.175C116.111 8.9751 116.908 9.27775 117.572 9.88667C118.235 10.4956 118.563 11.2306 118.563 12.0917C118.563 12.7943 118.335 13.4212 117.878 13.9689C117.42 14.5166 116.838 14.8877 116.126 15.075L118.884 19.3627H117.594H117.59ZM111.782 9.95512V14.2283H115.171C115.794 14.2283 116.325 14.0194 116.768 13.5978C117.21 13.1762 117.428 12.6754 117.428 12.0917C117.428 11.508 117.206 10.9928 116.768 10.5785C116.325 10.1641 115.794 9.95512 115.171 9.95512H111.782Z" fill="white"/>
<path d="M122.752 8.9751H123.881V19.3627H122.752V8.9751Z" fill="white"/>
<path d="M133.073 8.97528C134.611 8.97528 135.883 9.47611 136.886 10.4814C137.893 11.4866 138.394 12.7152 138.394 14.1673C138.394 15.6193 137.893 16.8515 136.886 17.8532C135.879 18.8584 134.611 19.3592 133.073 19.3592H128.719V8.97168H133.073V8.97528ZM133.073 18.3828C134.309 18.3828 135.323 17.9757 136.115 17.165C136.904 16.3543 137.299 15.3563 137.299 14.1673C137.299 12.9783 136.904 11.9802 136.115 11.1695C135.326 10.3588 134.312 9.95171 133.073 9.95171H129.847V18.3792H133.073V18.3828Z" fill="white"/>
<path d="M153.38 14.4194V14.9526C153.38 16.2389 152.878 17.3234 151.879 18.2098C150.88 19.0961 149.541 19.5393 147.863 19.5393C146.186 19.5393 144.74 19.0205 143.623 17.9828C142.506 16.9451 141.945 15.6732 141.945 14.1708C141.945 12.6683 142.506 11.3964 143.623 10.3588C144.74 9.32108 146.156 8.80225 147.863 8.80225C148.907 8.80225 149.862 9.03644 150.736 9.50124C151.606 9.96603 152.277 10.5858 152.753 11.3568L151.753 11.8901C151.399 11.2559 150.872 10.7515 150.172 10.3768C149.471 10.0021 148.704 9.8147 147.867 9.8147C146.458 9.8147 145.308 10.2363 144.416 11.0758C143.523 11.9153 143.077 12.9493 143.077 14.178C143.077 15.4066 143.523 16.4371 144.416 17.2802C145.308 18.1197 146.458 18.5413 147.867 18.5413C149.135 18.5413 150.153 18.2458 150.916 17.6585C151.68 17.0712 152.115 16.3218 152.222 15.4102H147.738V14.4302H153.383L153.38 14.4194Z" fill="white"/>
<path d="M158.704 18.3826H164.106V19.3627H157.576V8.9751H164.106V9.95512H158.704V13.6338H164.106V14.6139H158.704V18.3826Z" fill="white"/>
<path d="M62.3202 31.7789C62.8696 31.995 63.3048 32.3265 63.6329 32.7661C63.9611 33.2057 64.1233 33.7101 64.1233 34.2722C64.1233 35.072 63.8173 35.7566 63.2052 36.3187C62.5931 36.8844 61.8519 37.1654 60.978 37.1654H56.0591V26.7778H60.6056C61.4426 26.7778 62.158 27.0517 62.7516 27.6029C63.3453 28.1542 63.6403 28.8063 63.6403 29.5702C63.6403 30.5394 63.1978 31.278 62.3165 31.7825L62.3202 31.7789ZM60.6093 27.7579H57.1911V31.3789H60.6093C61.1366 31.3789 61.5864 31.2024 61.9552 30.8529C62.3276 30.5034 62.512 30.0746 62.512 29.5702C62.512 29.0658 62.3276 28.6514 61.9552 28.2947C61.5828 27.938 61.1366 27.7615 60.6093 27.7615V27.7579ZM60.9817 36.1854C61.5422 36.1854 62.0179 36.0016 62.4087 35.6305C62.7996 35.2594 62.9987 34.8054 62.9987 34.2722C62.9987 33.7389 62.8033 33.2993 62.4087 32.921C62.0179 32.5463 61.5422 32.3589 60.9817 32.3589H57.1911V36.1854H60.9817Z" fill="white"/>
<path d="M75.9008 37.1654L73.268 33.0111H70.0968V37.1654H68.9685V26.7778H73.4855C74.4221 26.7778 75.2186 27.0805 75.8823 27.6894C76.5424 28.2983 76.8742 29.0333 76.8742 29.8909C76.8742 30.5935 76.6456 31.2204 76.1884 31.768C75.7311 32.3157 75.1485 32.6868 74.4369 32.8742L77.195 37.1618H75.9044L75.9008 37.1654ZM70.0932 27.7579V32.0311H73.4782C74.1013 32.0311 74.6323 31.8221 75.0748 31.4005C75.5173 30.979 75.7348 30.4782 75.7348 29.8945C75.7348 29.3108 75.5136 28.7955 75.0748 28.3812C74.636 27.9668 74.1013 27.7579 73.4782 27.7579H70.0932Z" fill="white"/>
<path d="M88.5778 37.1654L87.5306 34.6144H82.1728L81.1256 37.1654H79.9309L84.2672 26.7778H85.4288L89.7688 37.1654H88.5741H88.5778ZM82.5747 33.6344H87.1286L84.8499 28.0821L82.5711 33.6344H82.5747Z" fill="white"/>
<path d="M93.4783 26.7812H94.6066V37.1688H93.4783V26.7812Z" fill="white"/>
<path d="M106.705 26.7812H107.833V37.1688H106.867L100.577 28.7125V37.1688H99.4482V26.7812H100.433L106.705 35.216V26.7812Z" fill="white"/>
<path d="M113.803 36.1888H119.286V37.1688H112.675V26.7812H119.205V27.7613H113.803V31.44H118.803V32.42H113.803V36.1888Z" fill="white"/>
<path d="M131.219 37.1652H129.928L126.864 32.7299L123.8 37.1652H122.509L126.222 31.8039L122.752 26.7812H124.028L126.868 30.8815L129.707 26.7812H130.983L127.509 31.8039L131.222 37.1652H131.219Z" fill="white"/>
<path d="M166.4 4.28416L166.123 3.60679H164.7L164.423 4.28416H164.106L165.257 1.52783H165.566L166.717 4.28416H166.4ZM164.807 3.34737H166.016L165.412 1.87372L164.807 3.34737Z" fill="white"/>
<path d="M167.701 1.53125H168V4.28757H167.701V1.53125Z" fill="white"/>
<path d="M156.318 31.624H126.952V31.8943H156.318V31.624Z" fill="white"/>
<path d="M156.846 32.4055C156.481 32.4055 156.182 32.1136 156.182 31.7569C156.182 31.4002 156.481 31.1084 156.846 31.1084C157.211 31.1084 157.51 31.4002 157.51 31.7569C157.51 32.1136 157.211 32.4055 156.846 32.4055ZM156.846 31.3786C156.632 31.3786 156.459 31.548 156.459 31.7569C156.459 31.9659 156.632 32.1353 156.846 32.1353C157.06 32.1353 157.233 31.9659 157.233 31.7569C157.233 31.548 157.06 31.3786 156.846 31.3786Z" fill="white"/>
<path d="M162.852 26.7275H130.573V27.0878H162.852V26.7275Z" fill="white"/>
<path d="M163.38 27.5559C163.015 27.5559 162.716 27.264 162.716 26.9073C162.716 26.5506 163.015 26.2588 163.38 26.2588C163.745 26.2588 164.044 26.5506 164.044 26.9073C164.044 27.264 163.745 27.5559 163.38 27.5559ZM163.38 26.529C163.166 26.529 162.993 26.6984 162.993 26.9073C162.993 27.1163 163.166 27.2857 163.38 27.2857C163.594 27.2857 163.767 27.1163 163.767 26.9073C163.767 26.6984 163.594 26.529 163.38 26.529Z" fill="white"/>
<path d="M162.856 36.9419H129.946V37.3022H162.856V36.9419Z" fill="white"/>
<path d="M163.38 37.7707C163.015 37.7707 162.716 37.4789 162.716 37.1222C162.716 36.7655 163.015 36.4736 163.38 36.4736C163.745 36.4736 164.044 36.7655 164.044 37.1222C164.044 37.4789 163.745 37.7707 163.38 37.7707ZM163.38 36.7439C163.166 36.7439 162.993 36.9132 162.993 37.1222C162.993 37.3312 163.166 37.5005 163.38 37.5005C163.594 37.5005 163.767 37.3312 163.767 37.1222C163.767 36.9132 163.594 36.7439 163.38 36.7439Z" fill="white"/>
<path d="M0 45.9964H38.356V0H0V45.9964ZM8.1417 42.206H3.84961V38.131H8.1417V42.206ZM21.2761 20.8039H26.1139V25.4266H21.2761V20.8039ZM8.1417 34.092H3.84961V20.8039H17.1721V38.131H21.2724V29.4657H26.1102V42.206H12.242V25.5239H8.1417V34.092ZM26.1139 16.7649H3.84961V12.045H26.1102V16.7649H26.1139ZM17.1278 8.00595H3.84961V3.794H17.1278V8.00595ZM34.5064 42.2096H30.2143V8.01676H29.0011V7.99875H21.2282V3.78679H34.5064V42.1988V42.2096Z" fill="url(#paint0_linear_10_2398)"/>
<path style="mix-blend-mode:multiply" opacity="0.41" d="M17.0982 0H10.4536V3.7976H17.0982V0Z" fill="url(#paint1_linear_10_2398)"/>
<path style="mix-blend-mode:multiply" opacity="0.41" d="M17.1021 8.00244H11.4272V12.0451H17.1021V8.00244Z" fill="url(#paint2_linear_10_2398)"/>
<path style="mix-blend-mode:multiply" opacity="0.41" d="M26.0955 25.4268H20.4207V29.4694H26.0955V25.4268Z" fill="url(#paint3_linear_10_2398)"/>
<path style="mix-blend-mode:multiply" opacity="0.41" d="M17.1021 20.8038V26.3921H21.254V20.8038H17.1021Z" fill="url(#paint4_linear_10_2398)"/>
<path style="mix-blend-mode:multiply" opacity="0.41" d="M26.0955 42.2061H20.4207V46.0037H26.0955V42.2061Z" fill="url(#paint5_linear_10_2398)"/>
<path style="mix-blend-mode:multiply" opacity="0.41" d="M0 38.1309L0 43.7192H3.85329L3.85329 38.1309H0Z" fill="url(#paint6_linear_10_2398)"/>
</g>
<defs>
<linearGradient id="paint0_linear_10_2398" x1="19.178" y1="45.9964" x2="19.178" y2="0" gradientUnits="userSpaceOnUse">
<stop stop-color="#00C881"/>
<stop offset="0.47" stop-color="#00C6E6"/>
<stop offset="1" stop-color="#257FFF"/>
</linearGradient>
<linearGradient id="paint1_linear_10_2398" x1="10.4536" y1="1.8988" x2="17.1019" y2="1.8988" gradientUnits="userSpaceOnUse">
<stop stop-opacity="0"/>
<stop offset="1"/>
</linearGradient>
<linearGradient id="paint2_linear_10_2398" x1="11.4236" y1="10.0237" x2="17.0984" y2="10.0237" gradientUnits="userSpaceOnUse">
<stop stop-opacity="0"/>
<stop offset="1"/>
</linearGradient>
<linearGradient id="paint3_linear_10_2398" x1="20.4207" y1="27.4481" x2="26.0955" y2="27.4481" gradientUnits="userSpaceOnUse">
<stop stop-opacity="0"/>
<stop offset="1"/>
</linearGradient>
<linearGradient id="paint4_linear_10_2398" x1="19.178" y1="26.3921" x2="19.178" y2="20.8002" gradientUnits="userSpaceOnUse">
<stop stop-opacity="0"/>
<stop offset="1"/>
</linearGradient>
<linearGradient id="paint5_linear_10_2398" x1="20.4207" y1="44.1013" x2="26.0992" y2="44.1013" gradientUnits="userSpaceOnUse">
<stop stop-opacity="0"/>
<stop offset="1"/>
</linearGradient>
<linearGradient id="paint6_linear_10_2398" x1="1.92849" y1="43.7192" x2="1.92849" y2="38.1309" gradientUnits="userSpaceOnUse">
<stop stop-opacity="0"/>
<stop offset="1"/>
</linearGradient>
<clipPath id="clip0_10_2398">
<rect width="168" height="46" fill="white"/>
</clipPath>
</defs>
</svg>
